<svg width="28" height="28" viewBox="0 0 28 28" fill="none" xmlns="http://www.w3.org/2000/svg">
<path fill-rule="evenodd" clip-rule="evenodd" d="M16.825 9.25C16.825 11.05 15.325 12.5 13.475 12.5C11.625 12.5 10.125 11.05 10.125 9.25C10.125 7.45 11.625 6 13.475 6C15.325 6 16.825 7.45 16.825 9.25ZM15.7 9.275C15.7 8.1 14.7 7.15 13.475 7.15C12.25 7.15 11.25 8.1 11.25 9.275C11.25 10.45 12.25 11.4 13.475 11.4C14.7 11.4 15.7 10.45 15.7 9.275Z" fill="#FFFFFD"/>
<path d="M7 18.5C7 15.825 9.175 13.625 11.85 13.625H15.1C17.775 13.625 19.95 15.825 20.025 18.5V20.575C20.025 20.9 19.775 21.15 19.45 21.15C19.125 21.15 18.875 20.875 18.875 20.575V18.5C18.875 16.425 17.175 14.75 15.125 14.75H11.9C9.825 14.75 8.15 16.45 8.15 18.5V20.575C8.15 20.9 7.9 21.15 7.575 21.15C7.25 21.15 7 20.875 7 20.575V18.5Z" fill="#FFFFFD"/>
</svg>
