<svg width="28" height="28" viewBox="0 0 28 28" fill="none" xmlns="http://www.w3.org/2000/svg">
<path fill-rule="evenodd" clip-rule="evenodd" d="M19.3407 6.86304C19.3407 9.83333 16.9223 12.2261 13.9395 12.2261C10.9568 12.2261 8.53839 9.83333 8.53839 6.86304C8.53839 3.89274 10.9568 1.5 13.9395 1.5C16.9223 1.5 19.3407 3.89274 19.3407 6.86304ZM17.5269 6.90429C17.5269 4.96535 15.9146 3.39769 13.9395 3.39769C11.9645 3.39769 10.3522 4.96535 10.3522 6.90429C10.3522 8.84323 11.9645 10.4109 13.9395 10.4109C15.9146 10.4109 17.5269 8.84323 17.5269 6.90429Z" fill="#FFFFFD"/>
<path d="M3.5 22.1271C3.5 17.7129 7.00672 14.0825 11.3196 14.0825H16.5595C20.8724 14.0825 24.3791 17.7129 24.5 22.1271V25.5512C24.5 26.0875 24.0969 26.5 23.5729 26.5C23.0489 26.5 22.6459 26.0462 22.6459 25.5512V22.1271C22.6459 18.703 19.905 15.9389 16.5998 15.9389H11.4002C8.0547 15.9389 5.35413 18.7442 5.35413 22.1271V25.5512C5.35413 26.0875 4.95106 26.5 4.42706 26.5C3.90307 26.5 3.5 26.0462 3.5 25.5512V22.1271Z" fill="#FFFFFD"/>
</svg>
