<svg width="28" height="28" viewBox="0 0 28 28" fill="none" xmlns="http://www.w3.org/2000/svg">
<path d="M20.2664 18.43L19.1414 8.7325C19.0289 7.7425 18.1964 7 17.1839 7H10.0964C9.10642 7 8.27392 7.7425 8.13892 8.7325L7.01392 18.43C6.94642 18.9925 7.12642 19.5325 7.50892 19.96C7.89142 20.3875 8.40892 20.6125 8.97142 20.6125H18.3089C18.8714 20.6125 19.4114 20.365 19.7714 19.96C20.1314 19.555 20.3339 18.9925 20.2664 18.43ZM19.0289 19.285C18.8489 19.4875 18.6014 19.6 18.3314 19.6H8.97142C8.70142 19.6 8.45392 19.4875 8.27392 19.285C8.09392 19.0825 8.00392 18.8125 8.04892 18.5425L9.15142 8.8675C9.19642 8.395 9.60142 8.035 10.0964 8.035H17.2064C17.6789 8.035 18.0839 8.395 18.1514 8.8675L19.2764 18.565C19.2989 18.835 19.2089 19.0825 19.0289 19.285Z" fill="#FFFFFD"/>
<path d="M15.8339 10.0825C15.5639 10.15 15.3839 10.42 15.4514 10.69C15.4739 10.825 15.4964 10.96 15.4964 11.0725C15.4964 12.085 14.6639 12.9175 13.6514 12.9175C12.6389 12.9175 11.8064 12.085 11.8064 11.0725C11.8064 10.9375 11.8289 10.825 11.8514 10.69C11.9189 10.42 11.7389 10.15 11.4689 10.0825C11.1989 10.015 10.9289 10.195 10.8614 10.465C10.8164 10.6675 10.7939 10.87 10.7939 11.0725C10.7939 12.6475 12.0764 13.93 13.6514 13.93C15.2264 13.93 16.5089 12.6475 16.5089 11.0725C16.5089 10.87 16.4864 10.6675 16.4414 10.465C16.3739 10.195 16.1039 10.0375 15.8339 10.0825Z" fill="#FFFFFD"/>
</svg>
