<svg width="28" height="28" viewBox="0 0 28 28" fill="none" xmlns="http://www.w3.org/2000/svg">
<path d="M26.4757 22.4917L24.3578 4.68182C24.146 2.86364 22.5787 1.5 20.6725 1.5H7.32941C5.46561 1.5 3.89832 2.86364 3.64417 4.68182L1.52621 22.4917C1.39913 23.5248 1.73801 24.5165 2.45811 25.3017C3.17822 26.0868 4.15248 26.5 5.21146 26.5H22.7905C23.8495 26.5 24.8661 26.0455 25.5438 25.3017C26.2216 24.5579 26.6028 23.5248 26.4757 22.4917ZM24.146 24.062C23.8071 24.4339 23.3412 24.6405 22.8329 24.6405H5.21146C4.70315 24.6405 4.2372 24.4339 3.89832 24.062C3.55945 23.6901 3.39001 23.1942 3.47473 22.6983L5.55033 4.92975C5.63505 4.06198 6.39751 3.40083 7.32941 3.40083H20.7149C21.6044 3.40083 22.3669 4.06198 22.494 4.92975L24.6119 22.7397C24.6543 23.2355 24.4849 23.6901 24.146 24.062Z" fill="#FFFFFD"/>
<path d="M18.131 7.16116C17.6227 7.28512 17.2838 7.78099 17.4109 8.27686C17.4532 8.52479 17.4956 8.77273 17.4956 8.97934C17.4956 10.8388 15.9283 12.3678 14.0222 12.3678C12.116 12.3678 10.5487 10.8388 10.5487 8.97934C10.5487 8.7314 10.5911 8.52479 10.6334 8.27686C10.7605 7.78099 10.4216 7.28512 9.91332 7.16116C9.40501 7.03719 8.8967 7.36777 8.76962 7.86364C8.68491 8.23554 8.64255 8.60744 8.64255 8.97934C8.64255 11.8719 11.057 14.2273 14.0222 14.2273C16.9873 14.2273 19.4018 11.8719 19.4018 8.97934C19.4018 8.60744 19.3594 8.23554 19.2747 7.86364C19.1476 7.36777 18.6393 7.07851 18.131 7.16116Z" fill="#FFFFFD"/>
</svg>
