<svg width="28" height="28" viewBox="0 0 28 28" fill="none" xmlns="http://www.w3.org/2000/svg">
<path d="M14 25C13.4404 25 12.8808 24.7963 12.4503 24.4296C11.4603 23.6148 10.5563 22.8815 9.73841 22.2296C7.28477 20.2333 5.13245 18.563 3.62583 16.8519C1.86093 14.8148 1 12.9 1 10.7407C1 8.66296 1.77483 6.70741 3.15232 5.28148C4.57285 3.81482 6.55298 3 8.66225 3C10.255 3 11.7616 3.48889 13.053 4.42593C13.3974 4.67037 13.6987 4.91481 14 5.24074C14.3013 4.95556 14.6026 4.67037 14.947 4.42593C16.2384 3.48889 17.702 3 19.3377 3C21.4901 3 23.4272 3.81482 24.8477 5.28148C26.2682 6.70741 27 8.66296 27 10.7407C27 12.9 26.1821 14.8148 24.3742 16.8519C22.8675 18.563 20.7152 20.2741 18.2616 22.2296C17.4437 22.8815 16.4967 23.6556 15.5066 24.4296C15.1192 24.7963 14.5596 25 14 25ZM8.66225 4.83333C7.06954 4.83333 5.60596 5.44444 4.5298 6.5037C3.49669 7.6037 2.93709 9.11111 2.93709 10.7407C2.93709 12.4111 3.62583 14 5.0894 15.6704C6.50993 17.2593 8.57616 18.9296 10.9437 20.8444C11.7616 21.4963 12.7086 22.2704 13.6987 23.0852C13.8709 23.2074 14.1291 23.2074 14.3013 23.0852C15.2914 22.2704 16.2384 21.537 17.0563 20.8444C19.4669 18.8889 21.5331 17.2593 22.9106 15.6704C24.3742 14 25.0629 12.4111 25.0629 10.7407C25.0629 9.11111 24.4603 7.6037 23.4272 6.54444C22.351 5.44444 20.8874 4.83333 19.3377 4.83333C18.1755 4.83333 17.0993 5.2 16.1523 5.85185C15.7649 6.13704 15.4205 6.46296 15.0762 6.82963C14.8179 7.11481 14.4305 7.31852 14 7.31852C13.5695 7.31852 13.2252 7.15556 12.9238 6.82963C12.5795 6.46296 12.2351 6.13704 11.8477 5.85185C10.9437 5.2 9.86755 4.83333 8.66225 4.83333Z" fill="#FFFFFD"/>
</svg>
