<svg width="28" height="28" viewBox="0 0 28 28" fill="none" xmlns="http://www.w3.org/2000/svg">
<path d="M14 20C13.6987 20 13.3974 19.8889 13.1656 19.6889C12.6325 19.2444 12.1457 18.8444 11.7053 18.4889C10.3841 17.4 9.22517 16.4889 8.41391 15.5556C7.46358 14.4444 7 13.4 7 12.2222C7 11.0889 7.41722 10.0222 8.15894 9.24444C8.92384 8.44444 9.99007 8 11.1258 8C11.9834 8 12.7947 8.26667 13.4901 8.77778C13.6755 8.91111 13.8377 9.04444 14 9.22222C14.1623 9.06667 14.3245 8.91111 14.5099 8.77778C15.2053 8.26667 15.9934 8 16.8742 8C18.0331 8 19.0762 8.44444 19.8411 9.24444C20.606 10.0222 21 11.0889 21 12.2222C21 13.4 20.5596 14.4444 19.5861 15.5556C18.7748 16.4889 17.6159 17.4222 16.2947 18.4889C15.8543 18.8444 15.3444 19.2667 14.8113 19.6889C14.6026 19.8889 14.3013 20 14 20ZM11.1258 9C10.2682 9 9.48013 9.33333 8.90066 9.91111C8.34437 10.5111 8.04305 11.3333 8.04305 12.2222C8.04305 13.1333 8.41391 14 9.20199 14.9111C9.96689 15.7778 11.0795 16.6889 12.3543 17.7333C12.7947 18.0889 13.3046 18.5111 13.8377 18.9556C13.9305 19.0222 14.0695 19.0222 14.1623 18.9556C14.6954 18.5111 15.2053 18.1111 15.6457 17.7333C16.9437 16.6667 18.0563 15.7778 18.798 14.9111C19.5861 14 19.957 13.1333 19.957 12.2222C19.957 11.3333 19.6325 10.5111 19.0762 9.93333C18.4967 9.33333 17.7086 9 16.8742 9C16.2483 9 15.6689 9.2 15.1589 9.55556C14.9503 9.71111 14.7649 9.88889 14.5795 10.0889C14.4404 10.2444 14.2318 10.3556 14 10.3556C13.7682 10.3556 13.5828 10.2667 13.4205 10.0889C13.2351 9.88889 13.0497 9.71111 12.8411 9.55556C12.3543 9.2 11.7748 9 11.1258 9Z" fill="#FFFFFD"/>
</svg>
